<?xml version="1.0" encoding="utf-8"?>
<!-- Generator: Adobe Illustrator 24.0.1, SVG Export Plug-In . SVG Version: 6.00 Build 0)  -->
<svg version="1.1" id="Capa_1" xmlns="http://www.w3.org/2000/svg" xmlns:xlink="http://www.w3.org/1999/xlink" x="0px" y="0px"
	 viewBox="0 0 274.6 83.1" style="enable-background:new 0 0 274.6 83.1;" xml:space="preserve">
<style type="text/css">
	.st0{fill:#1E1C1D;}
	.st1{fill:none;stroke:#000400;stroke-width:0.3301;stroke-miterlimit:10;}
	.st2{fill:#000400;}
	.st3{fill:none;stroke:#CB2528;stroke-width:0.3301;stroke-miterlimit:10;}
	.st4{fill:#000400;stroke:#000400;stroke-width:0.3301;stroke-miterlimit:10;}
</style>
<g>
	<g>
		<path class="st0" d="M84.2,68.1L80.3,77H79l-3.9-8.9h1.4l3.2,7.3l3.2-7.3H84.2z"/>
		<path class="st0" d="M90.6,68.1h1.3V77h-1.3V68.1z"/>
		<path class="st0" d="M98.8,76l0.5-1c0.7,0.6,1.8,1,2.9,1c1.5,0,2.2-0.6,2.2-1.4c0-2.2-5.4-0.8-5.4-4.1c0-1.4,1.1-2.5,3.4-2.5
			c1,0,2.1,0.3,2.9,0.8l-0.4,1c-0.8-0.5-1.7-0.7-2.4-0.7c-1.5,0-2.2,0.6-2.2,1.4c0,2.2,5.4,0.8,5.4,4.1c0,1.4-1.1,2.5-3.4,2.5
			C100.9,77.1,99.5,76.6,98.8,76z"/>
		<path class="st0" d="M112.5,73.1v-5.1h1.3v5c0,2,0.9,2.9,2.5,2.9s2.5-0.9,2.5-2.9v-5h1.2v5.1c0,2.6-1.4,3.9-3.8,3.9
			C113.9,77.1,112.5,75.7,112.5,73.1z"/>
		<path class="st0" d="M133.4,74.7h-4.7l-1,2.2h-1.3l4-8.9h1.3l4,8.9h-1.3L133.4,74.7z M132.9,73.7l-1.9-4.4l-1.9,4.4H132.9z"/>
		<path class="st0" d="M142.1,68.1h1.3v7.8h4.8V77h-6.1V68.1z"/>
		<path class="st0" d="M163.2,68.1h3.7c2.9,0,4.8,1.8,4.8,4.4S169.8,77,167,77h-3.7V68.1z M166.9,75.9c2.2,0,3.6-1.3,3.6-3.3
			s-1.4-3.3-3.6-3.3h-2.4v6.7H166.9z"/>
		<path class="st0" d="M185.2,75.9V77h-6.4v-8.9h6.3v1.1h-5v2.7h4.5V73H180v2.9H185.2z"/>
		<path class="st0" d="M191.6,76l0.5-1c0.7,0.6,1.8,1,2.9,1c1.5,0,2.2-0.6,2.2-1.4c0-2.2-5.4-0.8-5.4-4.1c0-1.4,1.1-2.5,3.4-2.5
			c1,0,2.1,0.3,2.9,0.8l-0.4,1c-0.8-0.5-1.7-0.7-2.4-0.7c-1.5,0-2.2,0.6-2.2,1.4c0,2.2,5.4,0.8,5.4,4.1c0,1.4-1.1,2.5-3.4,2.5
			C193.6,77.1,192.3,76.6,191.6,76z"/>
		<path class="st0" d="M205.3,68.1h1.3V77h-1.3V68.1z"/>
		<path class="st0" d="M220.5,72.5h1.2v3.5c-0.9,0.7-2.1,1.1-3.4,1.1c-2.7,0-4.7-1.9-4.7-4.5s2-4.5,4.8-4.5c1.4,0,2.6,0.5,3.4,1.4
			l-0.8,0.8c-0.7-0.7-1.6-1-2.6-1c-2.1,0-3.5,1.4-3.5,3.4c0,2,1.5,3.4,3.5,3.4c0.7,0,1.4-0.2,2.1-0.6V72.5z"/>
		<path class="st0" d="M236.9,68.1V77h-1l-5.3-6.6V77h-1.3v-8.9h1l5.3,6.6v-6.6H236.9z"/>
		<path class="st0" d="M251.1,75.9V77h-6.4v-8.9h6.3v1.1h-5v2.7h4.5V73h-4.5v2.9H251.1z"/>
		<path class="st0" d="M264.2,77l-1.9-2.7c-0.2,0-0.4,0-0.6,0h-2.2V77h-1.3v-8.9h3.5c2.3,0,3.7,1.2,3.7,3.1c0,1.4-0.7,2.4-2,2.8
			l2.1,3H264.2z M264.1,71.2c0-1.3-0.9-2-2.5-2h-2.2v4h2.2C263.3,73.2,264.1,72.4,264.1,71.2z"/>
	</g>
</g>
<g id="XMLID_192_">
	<g id="XMLID_197_">
		<circle id="XMLID_202_" class="st1" cx="35" cy="52.6" r="25.1"/>
		<circle id="XMLID_201_" class="st1" cx="35" cy="27.5" r="25.1"/>
		<circle id="XMLID_200_" class="st1" cx="34.8" cy="39.9" r="12.6"/>
		<ellipse id="XMLID_199_" class="st2" cx="34.8" cy="39.9" rx="3" ry="12.6"/>
		<polygon id="XMLID_198_" class="st3" points="34.8,52.6 13.2,40 34.8,27.3 56.6,39.9 		"/>
	</g>
	<path id="XMLID_196_" class="st4" d="M35,27.5c9.2,0,17.3,5.1,21.6,12.6c2.1-3.7,3.3-8,3.3-12.6C60,13.6,48.7,2.3,34.8,2.3
		C21,2.3,9.7,13.6,9.7,27.5c0,4.6,1.3,8.9,3.3,12.6C17.6,32.6,25.8,27.5,35,27.5z"/>
	<path id="XMLID_195_" class="st4" d="M35,52.6c9.2,0,17.3-5.1,21.6-12.6c2.1,3.7,3.3,8,3.3,12.6c0,13.8-11.3,25.1-25.1,25.1
		C21,77.8,9.7,66.5,9.7,52.6C9.7,48,11,43.7,13,40C17.6,47.5,25.8,52.6,35,52.6z"/>
	<circle id="XMLID_194_" class="st4" cx="6.5" cy="40" r="3.3"/>
	<circle id="XMLID_193_" class="st4" cx="63.3" cy="40" r="3.3"/>
</g>
<g>
	<path d="M75.5,3.7v10.9H88v0.6H75.5v10.5h-0.6V3.1h14.6v0.6H75.5z"/>
	<path d="M111.1,25.1v0.6H96V3.1h14.6v0.6H96.6v10.2h12.5v0.6H96.6v10.6H111.1z"/>
	<path d="M134.5,25.7l-5.8-8c-0.8,0.2-1.7,0.2-2.7,0.2h-7v7.8h-0.6V3.1h7.7c5.6,0,8.9,2.8,8.9,7.4c0,3.7-2,6.1-5.6,7.1l5.9,8.2
		H134.5z M126.2,17.4c5.3,0,8.2-2.5,8.2-6.8c0-4.3-2.9-6.8-8.2-6.8h-7.1v13.7H126.2z"/>
	<path d="M160.2,3.1v22.6h-0.6L143,4.3v21.5h-0.6V3.1h0.6l16.6,21.5V3.1H160.2z"/>
	<path d="M183.3,18.9h-13.8l-3.2,6.8h-0.7l10.5-22.6h0.6l10.5,22.6h-0.7L183.3,18.9z M183.1,18.3L176.4,4l-6.6,14.3H183.1z"/>
	<path d="M210.5,3.1v22.6h-0.6L193.3,4.3v21.5h-0.6V3.1h0.6l16.6,21.5V3.1H210.5z"/>
	<path d="M219.9,3.1h8.6c7.2,0,11.9,4.8,11.9,11.3c0,6.5-4.8,11.3-11.9,11.3h-8.6V3.1z M228.4,25.1c6.9,0,11.4-4.5,11.4-10.7
		s-4.4-10.7-11.4-10.7h-7.9v21.4H228.4z"/>
	<path d="M260.8,18.9H247l-3.2,6.8h-0.7l10.5-22.6h0.6l10.5,22.6H264L260.8,18.9z M260.5,18.3L253.9,4l-6.6,14.3H260.5z"/>
</g>
<g>
	<path d="M93,33.1v22.6h-0.6V44.6H75.9v11.2h-0.6V33.1h0.6V44h16.5V33.1H93z"/>
	<path d="M122.2,55.2v0.6h-15.1V33.1h14.6v0.6h-13.9V44h12.5v0.6h-12.5v10.6H122.2z"/>
	<path d="M150.3,55.8l-5.8-8c-0.8,0.2-1.7,0.2-2.7,0.2h-7v7.8h-0.6V33.1h7.7c5.6,0,8.9,2.8,8.9,7.4c0,3.7-2,6.1-5.6,7.1l5.9,8.2
		H150.3z M142,47.4c5.3,0,8.2-2.5,8.2-6.8c0-4.3-2.9-6.8-8.2-6.8h-7.1v13.7H142z"/>
	<path d="M179,55.8l-5.8-8c-0.8,0.2-1.7,0.2-2.7,0.2h-7v7.8h-0.6V33.1h7.7c5.6,0,8.9,2.8,8.9,7.4c0,3.7-2,6.1-5.6,7.1l5.9,8.2H179z
		 M170.6,47.4c5.3,0,8.2-2.5,8.2-6.8c0-4.3-2.9-6.8-8.2-6.8h-7.1v13.7H170.6z"/>
	<path d="M206.6,55.2v0.6h-15.1V33.1h14.6v0.6h-13.9V44h12.5v0.6h-12.5v10.6H206.6z"/>
	<path d="M234.8,55.8l-5.8-8c-0.8,0.2-1.7,0.2-2.7,0.2h-7v7.8h-0.6V33.1h7.7c5.6,0,8.9,2.8,8.9,7.4c0,3.7-2,6.1-5.6,7.1l5.9,8.2
		H234.8z M226.4,47.4c5.3,0,8.2-2.5,8.2-6.8c0-4.3-2.9-6.8-8.2-6.8h-7.1v13.7H226.4z"/>
	<path d="M261.1,49h-13.8l-3.2,6.8h-0.7l10.5-22.6h0.6L265,55.8h-0.7L261.1,49z M260.8,48.3L254.2,34l-6.6,14.3H260.8z"/>
</g>
</svg>
